<?xml version="1.0" encoding="utf-8"?>
<!-- Generator: Adobe Illustrator 26.0.2, SVG Export Plug-In . SVG Version: 6.00 Build 0)  -->
<svg version="1.1" id="Ebene_1" xmlns="http://www.w3.org/2000/svg" xmlns:xlink="http://www.w3.org/1999/xlink" x="0px" y="0px"
	 viewBox="0 0 900.2 299.1" style="enable-background:new 0 0 900.2 299.1;" xml:space="preserve">
<g>
	<path d="M209.5,268.4c-35.7-9-71.8-16.1-108.8-16.1c-12.9,0-25.8,0.6-38.6,2.4c-0.7,1-1.4,2-2.1,3c-1.2,1.5-4.3,0.3-6.4-1.6
		c-8.2,1.8-40.2,9.8-42.7,17.8c1.9,1.6,3.1,3.3,0.7,3.6c-0.7,0.1-1.4,0.2-2.1,0.2c-2.6,0.3-6.3-2.3-7.7-4.4
		c-10.5-16.7,28.6-25.9,52.8-29.6c21.7-58.2,64.9-108.5,91.4-164.6c7.1-15,17.5-34.3,17.3-51c-0.3-24.3-26.4-12.6-39.8-6.6
		c-12.2,5.5-23.9,12.2-34.7,20c-7.9,5.7-15.4,12.1-22.5,18.8c-0.6,0.6-15.7,17.9-9.6,16.7c0.6-0.1,2.9,1.4,2,1.9
		c-4.9,2.5-9.8-0.3-12-5.3C41,60.9,65.1,43.4,73,36.8c20.4-16.9,70.4-53.1,96.3-28.6c27.6,26.1-11.2,86.1-24.4,110.5
		c-22.3,41.2-46.3,84.1-73.5,123c45.9-3,92.2,3.3,134.9,20.6C207.9,263.1,214.6,269.7,209.5,268.4z"/>
	<path d="M282.9,147.2c-16.8,18.9-38.3,35.4-59.3,49.3c-12.3,8.1-27.9,18.4-43.2,13.1c-32.8-11.3-7.5-65.3,6-82.7
		c7.8-10.1,18.9-21.6,32.4-14.6c9.7,5.1,12.4,15.9,7.8,25.5c-5.2,11-18.3,19.7-30.1,13.4c-2.7-1.4-5.4-3.4-6.5-5.8
		c-7.6,13-15.6,31.4-12.8,44.7c5,24.2,39.8-4.4,49.4-10.6c17.6-11.5,34.5-24.3,52.3-35.3C279.9,143.6,283.8,146.2,282.9,147.2z
		 M193.8,139.4c-0.2,0.3-0.4,0.6-0.6,0.9c0.8,0.4,2.2,1.5,1.4,1.8c8.5,7.1,15,6.2,19.7-2.7c3.1-4.1,4.9-8.8,5.2-14.1
		C213,111.2,196.1,136,193.8,139.4z"/>
	<path d="M344,137.7c-9.7-5.9-22-3.2-31.9,0c-2.2,0.7-11.1,3.6-17,6.6c-0.3,0.8-0.6,1.6-0.9,2.3c-0.2,0.6-1.4,0.1-2.1-0.6
		c-1.4,0.9-2.4,1.8-2.4,2.6c-0.1,0.7,11,12.2,11.9,15.3c5.1,17.6-12,38.8-28.8,43.5c-11.7,3.3-20-5.2-19.7-16.3
		c0.3-13.6,11.1-35.9,25.1-45.8c-0.2-0.5-0.4-1-0.6-1.5c-0.3-0.6-0.3-1.2,0-1.8c15.4-16,53.4-24.6,69.7-5.7
		C349.8,139.3,345.8,138.8,344,137.7z M283,153c-10.9,12.2-20.5,32.4-18.7,45.8c10.4-2.7,22.4-19.4,24.4-27.2
		C290.9,163.4,287,158.4,283,153z"/>
	<path d="M404.3,154.8c-3.2,16.6-5.7,37.4-15.4,51.5c-1.5,2.2-6.6-2.1-6.8-3.8c-0.9-11.1,1.4-20.8,3.8-31.6c1-4.5,3.8-11.3,5.2-17.7
		c-5.5,5-11.1,12.5-13.6,15.4c-5.6,6.5-10.9,13.3-16.5,19.9c-6.9,8-18.4,24.7-30.5,20.1c-3.1-1.2-7.2-3.6-7.8-7.2
		c-1.9-12.5,3.3-28.3,8.5-39.6c3.4-7.3,9.1-20.3,18.9-19.5c0.7,0.1,4.7,2.8,3,3.3c-1.3,0.4-4.6,9.1-5.1,10.2
		c-2.3,5.1-5.1,9.9-7.1,15.2c-2.7,7.3-5.5,16.3-6.2,24.9c5.1-4.8,10.9-11.9,12.5-13.7c5.7-6.5,10.9-13.3,16.5-19.9
		c6.1-7.2,16.9-23.3,27.3-24C401,137.4,405.9,146.4,404.3,154.8z"/>
	<path d="M516.4,165.3c-17.5,13.3-42.5,19.9-61.8,31.2c-1.6,0.9-3.4,2-5.4,3.1c-3.5,13.3-13.3,26.6-21.2,35.4
		c-6.8,7.7-20.6,24.3-32.1,21.5c-2.5-0.6-5.9-2.4-6.4-5.3c-3.8-22.2,31.3-43.7,47-54c0,0,0,0,0,0c3-9.7,2.8-19.6-4.8-28.9
		c-10.9-13.4-24.6-23.4-14.8-42c6.5-12.3,28.8-34.1,44.3-30.1c18.1,4.7,6.3,22.4-2.4,30.1c-0.7,0.7-3.3-1-2.7-1.8
		c4-5,14.5-19.7,2.1-19.7c-4.4,0-11.8,7.8-14.7,10.3c-10.3,8.7-21.3,20.1-17.6,34.2c3.8,14.7,22.1,21.1,24.3,37.1
		c0.1,0.6,0.1,1.1,0.1,1.7c18.8-12.1,40.7-24.7,61.2-27.3C513,160.6,518.5,163.7,516.4,165.3z M430.1,211.2
		c-15.6,10.4-31.5,23.9-32.5,38.2c10.7-4.3,23.1-23.1,28-30.8C427.2,216.2,428.7,213.7,430.1,211.2z"/>
	<path d="M534.1,253.3c-3.1,3.4-7.3,4.4-11.5,2.5c-4-1.7-9.3-5.9-8.3-10.9c0.4-2.1,1.7-4.4,3.5-5.9c0.4-1.8,2-3.1,4.5-3.2
		C529.8,235.7,540.8,246,534.1,253.3z M529.5,244.8c-1.2,0.8-2.5,1.3-3.7,1.4c-0.1,0.6-0.3,1.3-0.4,1.9
		C527.4,250.1,531.2,243.6,529.5,244.8z"/>
	<path d="M646.6,206.3c0,16.2-3.5,29-10.5,38.4c-7,9.4-16.6,14.2-28.9,14.2c-8.2,0-15.4-1.6-21.5-4.9c-6.1-3.3-10.9-7.7-14.3-13.3
		l-0.7,16.2h-4.4v-28.6c-0.1-0.2-0.1-0.4-0.1-0.5c0-0.1,0-0.3,0-0.4v-42.8c0-0.1,0-0.1,0-0.1c0,0,0.1-0.2,0.2-0.6v-78.2h5.2v64.8
		c3.5-6.3,8.2-11.3,14.2-14.9c5.9-3.6,13-5.4,21.2-5.4c12.3,0,22,4.9,29,14.7s10.5,23,10.5,39.6V206.3z M641.2,204.2
		c0-14.5-2.9-26.4-8.7-35.4c-5.8-9.1-14.3-13.6-25.3-13.6c-10,0-17.7,2.5-23.3,7.5c-5.6,5-9.6,11.1-12.2,18.4v50.2
		c2.6,6.8,7,12.2,13,16.2c6,4,13.6,6.1,22.7,6.1c11.1,0,19.5-4.3,25.2-12.8c5.8-8.5,8.6-20,8.6-34.5V204.2z"/>
	<path d="M681.6,256.8h-5.2V105.5h5.2V256.8z"/>
	<path d="M707.8,202.3c0-15.4,4.3-28,12.8-37.7c8.5-9.8,19.5-14.6,33.1-14.6c13.6,0,24.7,4.9,33.2,14.6c8.5,9.8,12.8,22.3,12.8,37.7
		v4.1c0,15.4-4.3,28.1-12.8,37.8c-8.5,9.8-19.5,14.6-33,14.6c-13.6,0-24.7-4.9-33.3-14.6c-8.5-9.8-12.8-22.4-12.8-37.8V202.3z
		 M713,206.4c0,13.2,3.7,24.4,11.1,33.5c7.4,9.1,17.3,13.7,29.8,13.7c12.3,0,22.1-4.6,29.5-13.8c7.4-9.2,11.1-20.3,11.1-33.4v-4.1
		c0-12.9-3.7-23.9-11.2-33.2c-7.4-9.3-17.3-13.9-29.6-13.9c-12.3,0-22.2,4.6-29.6,13.9c-7.4,9.3-11.1,20.3-11.1,33.2V206.4z"/>
	<path d="M819.8,204.2c0-16.6,3.5-29.8,10.5-39.6c7-9.8,16.7-14.7,29.1-14.7c8.1,0,15.2,1.8,21.2,5.5c6,3.7,10.7,8.7,14.3,15.1
		l0.8-18.7h4.5v32.3c0,0.1,0,0.2,0,0.3c0,0.1,0,0.1,0.1,0.1v42.8c-0.1,0.1-0.1,0.2-0.1,0.3c0,0.1,0,0.1,0,0.2v29.6
		c0,13.3-3.5,23.6-10.5,30.9c-7,7.3-16.7,10.9-29.1,10.9c-5.1,0-10.4-0.5-15.9-1.6c-5.5-1.1-10.4-2.5-14.5-4.4l1.6-5.2
		c4.7,2.1,9.3,3.6,13.7,4.6c4.4,1,9.4,1.5,15,1.5c11.3,0,19.9-3.2,25.7-9.5c5.8-6.3,8.8-15.4,8.8-27.2v-16.6
		c-3.6,5.6-8.4,10-14.4,13.2c-6,3.2-13.1,4.8-21.2,4.8c-12.3,0-22-4.7-28.9-14.2c-6.9-9.4-10.4-22.2-10.4-38.4V204.2z M825.2,206.3
		c0,14.5,2.9,26,8.6,34.5c5.8,8.5,14.2,12.8,25.3,12.8c9,0,16.5-2,22.5-6.1c6-4,10.4-9.5,13.2-16.2v-50.2
		c-2.6-7.3-6.7-13.4-12.3-18.4c-5.6-5-13.3-7.5-23.2-7.5c-11.1,0-19.6,4.5-25.4,13.6c-5.8,9.1-8.7,20.9-8.7,35.4V206.3z"/>
</g>
</svg>
